<?xml version="1.0" standalone="no"?>
<!DOCTYPE svg PUBLIC "-//W3C//DTD SVG 20010904//EN"
 "http://www.w3.org/TR/2001/REC-SVG-20010904/DTD/svg10.dtd">
<svg version="1.0" xmlns="http://www.w3.org/2000/svg"
 width="700.000000pt" height="700.000000pt" viewBox="0 0 700.000000 700.000000"
 preserveAspectRatio="xMidYMid meet">
<metadata>
Created by potrace 1.14, written by Peter Selinger 2001-2017
</metadata>
<g transform="translate(0.000000,700.000000) scale(0.100000,-0.100000)"
fill="#000000" stroke="none">
<path d="M3160 6839 c-1463 -159 -2647 -1227 -2944 -2654 -54 -260 -61 -337
-61 -685 0 -348 7 -425 61 -685 59 -283 141 -520 274 -790 104 -211 194 -359
329 -539 192 -256 411 -475 667 -667 180 -135 328 -225 539 -329 328 -161 617
-251 1000 -312 124 -20 178 -22 475 -22 361 0 464 9 727 69 683 154 1294 509
1756 1020 483 534 775 1187 853 1905 22 211 15 635 -14 825 -39 247 -99 485
-179 699 -58 158 -202 451 -293 595 -480 769 -1237 1306 -2123 1506 -241 55
-362 67 -682 70 -165 2 -338 -1 -385 -6z m764 -469 c492 -75 960 -277 1366
-590 122 -94 396 -368 490 -490 181 -235 348 -533 444 -795 61 -165 119 -391
148 -576 19 -123 22 -184 22 -419 0 -316 -16 -448 -83 -714 -99 -386 -297
-783 -547 -1096 -89 -111 -346 -368 -454 -454 -316 -251 -711 -448 -1094 -546
-268 -68 -400 -84 -716 -84 -235 0 -296 3 -419 22 -501 78 -967 279 -1371 592
-123 96 -397 369 -490 490 -181 235 -348 534 -444 795 -61 165 -119 391 -148
576 -19 123 -22 184 -22 419 0 235 3 296 22 419 78 501 278 964 592 1371 94
122 368 396 490 490 236 182 531 347 796 444 170 63 398 121 576 146 201 28
206 28 468 25 175 -3 270 -9 374 -25z"/>
<path d="M3265 6084 c-16 -2 -82 -11 -145 -20 -516 -71 -1027 -321 -1412 -693
-228 -219 -399 -453 -533 -726 -120 -245 -198 -491 -241 -765 -27 -164 -27
-596 0 -760 43 -274 121 -520 241 -765 123 -251 268 -456 464 -659 396 -408
907 -671 1481 -762 164 -27 596 -27 760 0 153 24 370 79 505 128 243 88 537
254 741 418 434 351 752 847 887 1385 61 244 72 338 72 635 0 297 -11 391 -72
635 -116 464 -362 888 -709 1226 -202 196 -408 341 -659 464 -184 90 -325 142
-515 189 -230 57 -318 67 -590 71 -135 2 -258 1 -275 -1z m-8 -2799 c288 -715
526 -1314 530 -1332 9 -51 -7 -54 -282 -51 l-245 3 -24 25 c-17 16 -208 466
-561 1314 -294 709 -535 1297 -535 1306 0 39 15 40 308 38 l284 -3 525 -1300z
m1591 1293 c7 -7 12 -19 12 -28 0 -26 -706 -1720 -724 -1738 -13 -13 -20 -14
-34 -6 -9 6 -79 163 -156 348 l-138 336 216 538 c120 295 224 543 233 550 23
17 573 18 591 0z"/>
</g>
</svg>
