<?xml version="1.0" encoding="utf-8"?>
<!-- Generator: Adobe Illustrator 24.2.3, SVG Export Plug-In . SVG Version: 6.00 Build 0)  -->
<svg version="1.1" id="vw-v" xmlns="http://www.w3.org/2000/svg" xmlns:xlink="http://www.w3.org/1999/xlink" x="0px" y="0px"
	 viewBox="0 0 38.6 38.6" style="enable-background:new 0 0 38.6 38.6;" xml:space="preserve">
<style type="text/css">
	.st0{fill:#FFFFFF;}
</style>
<circle cx="19.3" cy="19.3" r="18.5"/>
<g>
	<g>
		<path class="st0" d="M19.3,3.3c-8.8,0-16,7.2-16,16s7.2,16,16,16s16-7.2,16-16S28.1,3.3,19.3,3.3z M19.3,33.6
			C11.4,33.6,5,27.2,5,19.3S11.4,5,19.3,5s14.3,6.4,14.3,14.3S27.2,33.6,19.3,33.6z M15,13.3h-3c-0.2,0-0.2,0.1-0.2,0.3l5.9,14.2
			c0.1,0.1,0.2,0.3,0.4,0.3h2.6c0.2,0,0.2-0.1,0.2-0.3l-5.8-14.4C15.2,13.4,15.1,13.3,15,13.3z M26.6,13.3h-3
			c-0.1,0-0.2,0.1-0.2,0.1l-2.3,5.7c-0.1,0.1-0.1,0.4,0,0.5l1.4,3.4c0.1,0.2,0.3,0.2,0.4,0l3.9-9.4C26.8,13.4,26.8,13.3,26.6,13.3z"
			/>
	</g>
</g>
</svg>
