<?xml version="1.0" encoding="utf-8"?>
<!-- Generator: Adobe Illustrator 22.0.1, SVG Export Plug-In . SVG Version: 6.00 Build 0)  -->
<svg version="1.1" id="vw-v" xmlns="http://www.w3.org/2000/svg" xmlns:xlink="http://www.w3.org/1999/xlink" x="0px" y="0px"
	 viewBox="0 0 32 32" style="enable-background:new 0 0 32 32;" xml:space="preserve">
<style type="text/css">
	.st0{fill:#FFFFFF;}
</style>
<g>
	<g>
		<path class="st0" d="M16,0C7.2,0,0,7.2,0,16s7.2,16,16,16s16-7.2,16-16S24.8,0,16,0z M16,30.3C8.1,30.3,1.7,23.9,1.7,16
			S8.1,1.7,16,1.7S30.3,8.1,30.3,16S23.9,30.3,16,30.3z M11.7,10h-3c-0.2,0-0.2,0.1-0.2,0.3l5.9,14.2c0.1,0.1,0.2,0.3,0.4,0.3h2.6
			c0.2,0,0.2-0.1,0.2-0.3l-5.8-14.4C11.9,10.1,11.8,10,11.7,10z M23.3,10h-3c-0.1,0-0.2,0.1-0.2,0.1l-2.3,5.7
			c-0.1,0.1-0.1,0.4,0,0.5l1.4,3.4c0.1,0.2,0.3,0.2,0.4,0l3.9-9.4C23.5,10.1,23.5,10,23.3,10z"/>
	</g>
</g>
</svg>
